<?xml version="1.0" encoding="utf-8"?>
<!-- Generator: Adobe Illustrator 26.3.1, SVG Export Plug-In . SVG Version: 6.00 Build 0)  -->
<svg version="1.1" id="Layer_1" xmlns="http://www.w3.org/2000/svg" xmlns:xlink="http://www.w3.org/1999/xlink" x="0px" y="0px"
	 viewBox="0 0 4000 2000" style="enable-background:new 0 0 4000 2000;" xml:space="preserve">
<style type="text/css">
	.st0{fill:#FDFDFD;}
</style>
<g>
	<path class="st0" d="M395.4,743h211.8c71.6,0,130.5,17.8,176.9,53.3c46.3,35.6,69.5,85.2,69.5,148.9v109.6
		c0,66.7-22.6,117.2-67.7,151.5c-45.1,34.3-104.4,51.5-178,51.5H395.4c-5.4,0-10.1-2-14-5.9c-3.9-3.9-5.9-8.6-5.9-14V762.8
		c0-5.4,2-10,5.9-14C385.4,744.9,390,743,395.4,743z M559.4,886.4v228h47.8c16.7,0,30-5,40.1-15.1c10-10,15.1-24.9,15.1-44.5V945.2
		c0-39.2-18.4-58.8-55.1-58.8H559.4z"/>
	<path class="st0" d="M1350.9,776.6c0,0,74.7,297.8,74.7,325.8c0,47.8-33.5,88.4-81.3,88.4l-229.4,0l-17.7,48.5
		c-4.4,12.3-14,18.4-28.7,18.4H963.2c-4.4,0-8.2-1.6-11.4-4.8c-3.2-3.2-4.8-6.4-4.8-9.6c0-3.2,0.2-5.5,0.7-7l164-469.2
		c4.4-16.2,15.4-24.3,33.1-24.3h278.6L1350.9,776.6z M1152.4,1047.4h129.1L1216.9,880L1152.4,1047.4z"/>
	<path class="st0" d="M1871.8,743H2016c5.4,0,10,2,14,5.9c3.9,3.9,5.9,8.6,5.9,14v475.1c0,5.4-2,10.1-5.9,14
		c-3.9,3.9-8.6,5.9-14,5.9h-144.1c-5.4,0-10.1-2-14-5.9c-3.9-3.9-5.9-8.6-5.9-14V1079h-119.1v158.8c0,5.4-2,10.1-5.9,14
		c-3.9,3.9-8.6,5.9-14,5.9h-144.1c-5.4,0-10.1-1.8-14-5.5c-3.9-3.7-5.9-8.5-5.9-14.3V762.8c0-5.4,2-10,5.9-14
		c3.9-3.9,8.6-5.9,14-5.9H1713c5.4,0,10,2,14,5.9c3.9,3.9,5.9,8.6,5.9,14v154.4H1852V762.8c0-5.4,2-10,5.9-14
		C1861.8,744.9,1866.4,743,1871.8,743z"/>
	<path class="st0" d="M2357.2,1114.3h226.5c5.4,0,10.1,2,14,5.9c3.9,3.9,5.9,8.6,5.9,14v103.7c0,5.4-2,10.1-5.9,14
		c-3.9,3.9-8.6,5.9-14,5.9h-383.1c-5.4,0-10.1-2-14-5.9c-3.9-3.9-5.9-8.6-5.9-14V762.8c0-5.4,2-10,5.9-14c3.9-3.9,8.6-5.9,14-5.9
		h377.3c5.4,0,10,2,14,5.9c3.9,3.9,5.9,8.6,5.9,14v103.7c0,5.4-1.9,10.1-5.9,14c-3.9,3.9-8.6,5.9-14,5.9h-220.6v46.3h204.4
		c5.4,0,10.1,2,14,5.9c3.9,3.9,5.9,8.6,5.9,14v95.6c0,5.4-2,10.1-5.9,14c-3.9,3.9-8.6,5.9-14,5.9h-204.4V1114.3z"/>
	<path class="st0" d="M2910.9,1257.7h-150c-5.4,0-10.1-2-14-5.9c-3.9-3.9-5.9-8.6-5.9-14V762.8c0-5.4,1.9-10,5.9-14
		c3.9-3.9,8.6-5.9,14-5.9h150c5.4,0,10,2,14,5.9c3.9,3.9,5.9,8.6,5.9,14v475.1c0,5.4-2,10.1-5.9,14
		C2921,1255.8,2916.3,1257.7,2910.9,1257.7z"/>
	<path class="st0" d="M3488.2,743h116.2c5.4,0,10,2,14,5.9c3.9,3.9,5.9,8.6,5.9,14v475.1c0,5.4-2,10.1-5.9,14
		c-3.9,3.9-8.6,5.9-14,5.9h-133.1c-5.4,0-10.1-2-14-5.9c-3.9-3.9-5.9-8.6-5.9-14v-201.5l-48.5,79.4c-7.9,12.3-16.9,18.4-27.2,18.4
		h-51.5c-10.3,0-19.4-6.1-27.2-18.4l-48.5-79.4v201.5c0,5.4-2,10.1-5.9,14c-3.9,3.9-8.6,5.9-14,5.9h-133.1c-5.4,0-10.1-2-14-5.9
		c-3.9-3.9-5.9-8.6-5.9-14V762.8c0-5.4,1.9-10,5.9-14c3.9-3.9,8.6-5.9,14-5.9h116.2c13.7,0,24.3,6.6,31.6,19.9L3350,939.3
		l106.6-176.5C3463.9,749.6,3474.5,743,3488.2,743z"/>
</g>
</svg>
